<svg width="143" height="117" viewBox="0 0 143 117" fill="none" xmlns="http://www.w3.org/2000/svg">
<g id="SvgjsG8619">
<path id="Vector" d="M85.8467 65.907C82.07 65.907 78.9946 71.6014 78.9946 78.6375C78.9946 85.6718 82.07 91.3818 85.8467 91.3818C89.6214 91.3818 92.6909 85.6737 92.6909 78.6375C92.6968 71.5974 89.6273 65.907 85.8467 65.907Z" fill="#FF3333"/>
<path id="Vector_2" d="M57.1709 65.907C53.3864 65.907 50.3169 71.6014 50.3169 78.6375C50.3169 85.6718 53.3864 91.3818 57.1709 91.3818C60.9495 91.3818 64.0171 85.6737 64.0171 78.6375C64.0171 71.6014 60.9495 65.907 57.1709 65.907Z" fill="#FF3333"/>
<path id="Vector_3" d="M131.39 29.9072C132.544 27.0845 136.328 15.6977 130.191 0.314833C130.191 0.314833 120.787 -2.66066 99.4861 11.8936C90.5675 9.43916 80.9828 9.07285 71.5039 9.07285C62.025 9.07285 52.4482 9.43916 43.5022 11.9014C22.2094 -2.66262 12.8089 0.312876 12.8089 0.312876C6.67968 15.7036 10.4681 27.0825 11.6179 29.9072C4.39957 37.7093 0 47.6701 0 59.8815C0 105.856 29.7784 116.251 71.3374 116.251C112.916 116.251 143 105.858 143 59.8815C143 47.6701 138.6 37.7073 131.38 29.9072H131.39ZM71.5078 107.454C41.988 107.454 18.0547 106.071 18.0547 77.472C18.0547 70.6415 21.4161 64.2635 27.179 58.9942C36.7774 50.1989 53.0535 54.8473 71.5098 54.8473C89.9798 54.8473 106.232 50.1989 115.841 58.9844C121.609 64.2635 124.981 70.6219 124.981 77.4641C124.981 106.073 101.032 107.454 71.5117 107.454H71.5078Z" fill="#FF3333"/>
</g>
</svg>
